<svg width="22" height="29" viewBox="0 0 22 29" fill="none" xmlns="http://www.w3.org/2000/svg">
<path d="M14.5954 13.775C14.5954 14.6595 14.0297 15.3845 13.3131 15.3845C12.6091 15.3845 12.0309 14.6595 12.0309 13.775C12.0309 12.8905 12.5966 12.1655 13.3131 12.1655C14.0297 12.1655 14.5954 12.8905 14.5954 13.775ZM8.72457 12.1655C8.008 12.1655 7.44229 12.8905 7.44229 13.775C7.44229 14.6595 8.02057 15.3845 8.72457 15.3845C9.44114 15.3845 10.0069 14.6595 10.0069 13.775C10.0194 12.8905 9.44114 12.1655 8.72457 12.1655ZM22 2.987V29C18.8329 25.7718 19.8458 26.8404 16.1669 22.8955L16.8331 25.578H2.57714C1.15657 25.578 0 24.244 0 22.591V2.987C0 1.334 1.15657 0 2.57714 0H19.4229C20.8434 0 22 1.334 22 2.987ZM18.4171 16.733C18.4171 12.064 16.6069 8.2795 16.6069 8.2795C14.7966 6.7135 13.0743 6.757 13.0743 6.757L12.8983 6.989C15.0354 7.743 16.0286 8.8305 16.0286 8.8305C13.0423 6.94272 9.53445 6.94238 6.63771 8.41C6.17257 8.6565 5.896 8.8305 5.896 8.8305C5.896 8.8305 6.93943 7.685 9.20229 6.931L9.07657 6.757C9.07657 6.757 7.35429 6.7135 5.544 8.2795C5.544 8.2795 3.73371 12.064 3.73371 16.733C3.73371 16.733 4.78971 18.8355 7.568 18.937C7.568 18.937 8.03314 18.2845 8.41029 17.7335C6.81371 17.1825 6.21029 16.0225 6.21029 16.0225C6.39522 16.1718 6.70018 16.3653 6.72571 16.385C8.84763 17.7556 11.8617 18.2046 14.5703 16.8925C15.0103 16.704 15.5006 16.4285 16.016 16.037C16.016 16.037 15.3874 17.226 13.7406 17.7625C14.1177 18.3135 14.5703 18.937 14.5703 18.937C17.3486 18.8355 18.4171 16.733 18.4171 16.733Z" fill="white"/>
</svg>
