<svg width="27" height="29" viewBox="0 0 27 29" fill="none" xmlns="http://www.w3.org/2000/svg">
<path fill-rule="evenodd" clip-rule="evenodd" d="M12.1477 0.0738828C6.87054 0.653146 2.37596 4.51511 0.697267 9.91272C-0.630649 14.1823 -0.0425922 18.8374 2.29686 22.5761C3.9691 25.2485 6.39583 27.2359 9.22615 28.2512C13.2018 29.6773 17.5364 29.0457 21.0177 26.5333C23.5061 24.7374 25.3567 22.1313 26.3021 19.0917C27.6299 14.8227 27.0447 10.1858 24.7037 6.42609C21.9449 1.99543 17.0771 -0.467225 12.1477 0.0738828ZM14.4532 5.98485C14.6551 6.17127 14.6655 6.21701 14.7015 7.06844L14.739 7.95746L15.0674 8.21252C15.6182 8.64029 16.6447 9.74526 17.1254 10.4277C18.0549 11.7478 18.3535 12.9097 18.0393 13.9829C17.8517 14.6231 17.2971 15.5045 16.5701 16.3178L15.9577 17.0029H15.3296H14.7015V17.7692V18.5355H15.6453C16.1893 18.5355 16.6587 18.4975 16.7533 18.4458C16.8435 18.3965 17.157 18.1037 17.4499 17.7952L17.9825 17.2341L20.0376 16.5941C21.1679 16.2422 22.1536 15.9542 22.2278 15.9542C22.3457 15.9542 22.363 16.03 22.363 16.5469V17.1397L22.0441 17.2931C21.8687 17.3775 21.5276 17.5879 21.2861 17.7606C20.8992 18.0373 20.7459 18.2393 20.0007 19.4546C19.1352 20.8659 18.7214 21.3658 18.1453 21.6959L17.8187 21.8832L13.7325 21.906C9.84433 21.9278 9.61734 21.921 9.04746 21.7662C7.78527 21.4234 6.71799 20.4983 6.14503 19.2505C5.82055 18.5436 5.58965 17.5789 5.62788 17.0896L5.65042 16.8012L7.73306 16.7797L9.81571 16.7583L9.85011 16.9411C9.86904 17.0416 9.90201 17.2633 9.92335 17.4339C9.97179 17.8205 10.2559 18.2297 10.5962 18.4031C10.8013 18.5077 11.0943 18.5355 11.99 18.5355H13.1241V17.7692V17.0029H12.1101C10.9301 17.0029 10.935 17.0077 11.3853 16.2926C11.8453 15.5622 12.2839 14.6552 12.4863 14.016C12.9384 12.5887 12.5884 10.5106 11.472 7.99376C11.2322 7.45321 11.0515 6.99438 11.0704 6.97406C11.0892 6.95381 11.5338 7.06013 12.058 7.21041C12.5824 7.36069 13.0368 7.48379 13.0678 7.48395C13.0987 7.48411 13.1253 7.23929 13.1267 6.93977C13.1283 6.64026 13.1742 6.30856 13.229 6.20249C13.455 5.76447 14.0919 5.65129 14.4532 5.98485ZM10.7949 9.8832C11.2104 11.1097 11.3403 11.7413 11.3471 12.5662C11.3539 13.3945 11.2936 13.6047 10.728 14.7254L10.4729 15.2309L8.54991 15.2094C6.8435 15.1903 6.62786 15.1734 6.63537 15.0591C6.64265 14.9495 7.96974 12.6739 9.80444 9.62515C10.2876 8.82212 10.288 8.82171 10.4217 8.9991C10.4953 9.09662 10.6632 9.49455 10.7949 9.8832Z" fill="white"/>
</svg>
